# xmcd
#
# Track frame offsets:
# 150
# 15526
# 29758
# 45049
# 61297
# 76641
# 92039
# 105798
# 118173
# 133077
# 146600
# 158253
# 171503
# 183126
# 194847
# 209335
# 224235
# 238588
# 252001
# 265566
#
# Disc length: 3727 seconds
#
#
# Revision: 2
# Processed by: cddbd v1.5.2PL0 Copyright (c) Steve Scherf et al.
# Submitted via: FreeRIP 2.951 
#
DISCID=0e0e8d14
DTITLE=Louis Armstrong - After You've Gone [CD 2)
DYEAR=2004
DGENRE=Blues
TTITLE0=Shine
TTITLE1=Them There Eyes
TTITLE2=Georgia On My Mind
TTITLE3=Keepin' Out Of Mischief Now
TTITLE4=High Society
TTITLE5=Basin Street Blues
TTITLE6=Mississippi Basin
TTITLE7=Sweet Sue, Just You
TTITLE8=Shoe Shine Boy
TTITLE9=Solitude
TTITLE10=Alexander's Rag Time Band
TTITLE11=On The Sunny Side Of The Street
TTITLE12=Satchel Mouth Swing
TTITLE13=Jubilee
TTITLE14=Savoy Blues
TTITLE15=Wolverine Blues
TTITLE16=When It's Sleepy Time Down South
TTITLE17=You Rascal You
TTITLE18=Do You Know What It Means To Miss New Orleans
TTITLE19=Where The Blues is Born In New Orleans
EXTD=
EXTT0=
EXTT1=
EXTT2=
EXTT3=
EXTT4=
EXTT5=
EXTT6=
EXTT7=
EXTT8=
EXTT9=
EXTT10=
EXTT11=
EXTT12=
EXTT13=
EXTT14=
EXTT15=
EXTT16=
EXTT17=
EXTT18=
EXTT19=
PLAYORDER=
